<svg xmlns="http://www.w3.org/2000/svg" viewBox="0 0 100 100">
  <rect width="100" height="100" rx="16" fill="#050506"/>
  <g transform="translate(10, 15) scale(0.2)">
    <polygon points="95,72 78,30 88,68" fill="#c9a84c"/>
    <polygon points="110,68 120,25 104,62" fill="#e0c97f"/>
    <polygon points="88,68 110,68 108,82 90,80" fill="#c9a84c"/>
    <polygon points="80,88 90,80 108,82 115,85 112,98 85,100" fill="#a08030"/>
    <polygon points="120,115 135,100 175,82 185,88 180,105 155,115" fill="#c9a84c"/>
    <polygon points="155,115 180,105 210,100 260,108 250,125 200,130 155,125" fill="#c9a84c"/>
    <polygon points="200,130 250,125 310,118 310,140 260,145 200,142" fill="#b89a40"/>
    <polygon points="120,115 155,125 200,142 260,150 250,160 190,165 140,155 110,135 90,110" fill="#a08030"/>
    <polygon points="310,118 355,115 350,135 310,140" fill="#c9a84c"/>
  </g>
</svg>
